<svg xmlns="http://www.w3.org/2000/svg" width="256" height="256"><path fill-opacity=".016" d="M0 128.004v128.004l128.25-.254 128.25-.254.254-127.75L257.008 0H0v128.004m.485.496c0 70.4.119 99.053.265 63.672.146-35.38.146-92.98 0-128C.604 29.153.485 58.1.485 128.5" fill="#1976D2" fill-rule="evenodd"/><path fill-opacity=".151" d="M3 128v128h250V0l-70.75.126c-45.661.082-68.268.437-63.75 1.001 22.943 2.866 44.137 13.521 61.398 30.868 12.499 12.56 20.512 27.027 24.504 44.238 1.225 5.282 3.598 23.821 3.598 28.109 0 .622 6.077-4.934 13.503-12.345l13.504-13.476 8.74 8.74 8.739 8.74-28.488 28.501-28.489 28.502-28.5-28.499-28.5-28.5 8.582-8.582 8.583-8.582 13.288 13.121c7.308 7.217 13.521 12.888 13.807 12.603 1.1-1.1-1.841-20.586-4.127-27.343-4.059-11.997-9.131-19.924-19.039-29.752-15.605-15.48-31.16-21.83-53.603-21.881-18.816-.043-31.172 3.747-45.628 13.994-14.463 10.253-26.379 28.55-29.808 45.774-2.216 11.132-2.032 26.468.434 36.233 4.105 16.254 16.688 38.108 33.847 58.788 8.423 10.15 36.602 39.247 39.535 40.822 1.604.861 3.527-.635 13.145-10.225l11.265-11.233-1.577-3.621c-2.374-5.45-2.133-17.498.463-23.121 3.114-6.744 8.696-12.544 15.1-15.689 4.919-2.416 6.919-2.81 14.224-2.801 10.174.011 15.625 2.115 22.001 8.491 6.292 6.292 9.11 13.252 9.11 22.499 0 12.431-5.649 22.158-16.292 28.054-4.839 2.68-6.196 2.95-15.047 2.995l-9.729.049-14.771 14.484c-16.577 16.254-25.744 24.273-27.163 23.762-2.165-.779-25.868-22.899-39.44-36.805-35.953-36.841-55.884-69.451-60.698-99.312-.803-4.983-1.053-12.521-.697-21C5.661 64.706 18.506 40.032 44.5 20.45 57.457 10.689 76.986 3.008 93.847 1.039 97.793.579 80.663.209 51.75.131L3 0v128" fill="#1976D2" fill-rule="evenodd"/><path fill-opacity=".324" d="M3.13 48.75c.088 33.272.405 46.369.997 41.252C6.89 66.128 15.9 47.036 31.975 30.992 48.548 14.451 68.457 4.285 90.5 1.109 94.443.54 80.474.202 49.75.122L3 0l.13 48.75M123.179 1.497c20.356 3.426 38.701 12.795 54.573 27.872C193.949 44.755 202.99 62.535 206.548 86c.792 5.225 1.443 11.412 1.446 13.75.003 2.338.337 4.25.742 4.25.405 0 6.478-5.729 13.496-12.732l12.76-12.731 8.51 8.465c4.68 4.656 8.393 8.814 8.25 9.242-.344 1.033-56.042 56.756-56.73 56.756-.294 0-13.351-12.822-29.015-28.493l-28.48-28.493 8.97-9.011 8.969-9.01 13.267 13.239L182 104.472v-6.576c0-17.144-10.028-39.371-23.271-51.578-7.58-6.987-18.171-13.382-27.421-16.558-7.596-2.608-10.669-3.091-22.333-3.513-11.7-.423-14.737-.189-22.5 1.738-12.957 3.214-23.054 8.796-33.081 18.287-17.535 16.599-25.602 37.405-24.122 62.217 1.046 17.529 9.863 37.389 26.506 59.706 10.65 14.281 28.818 34.481 41.079 45.674l9.116 8.323 11.164-10.93 11.164-10.931-1.651-4.844c-2.063-6.056-2.107-13.585-.118-20.283 2.185-7.357 10.721-16.407 18.069-19.156 6.901-2.582 17.068-2.712 23.814-.303 6.633 2.368 13.861 9.082 17.285 16.052 3.684 7.503 3.959 19.113.624 26.379-2.652 5.778-9.537 13.382-14.333 15.829-5.018 2.559-14.628 4.072-19.676 3.096-4.049-.782-4.326-.664-8.5 3.646-5.368 5.541-27.78 26.469-33.745 31.509L105.64 256H253V0l-68.75.103c-59.723.089-67.742.272-61.071 1.394M3.126 182.75 3 256l51.25-.029 51.25-.03-3.5-3.117c-32.711-29.135-46.894-43.704-64.302-66.055-18.654-23.95-30.876-49.677-33.599-70.724-.52-4.027-.895 21.639-.973 66.705" fill="#1976D2" fill-rule="evenodd"/><path fill-opacity=".507" d="M3.103 46.25c.092 41.579.234 45.465 1.409 38.479C8.359 61.847 17.415 44.41 33.275 29.344 49.25 14.169 66.591 5.063 86.342 1.479 92.715.323 88.541.171 48.25.09L3 0l.103 46.25M123.607 1.088C159.436 7.082 192.367 34.874 202.89 68c2.722 8.569 5.11 22.758 5.11 30.367v6.105l13.497-13.469 13.496-13.468 9.004 8.962L253 95.458V0l-67.25.117c-40.924.071-65.251.451-62.143.971M94.5 26.641C73.508 30.929 61.094 37.458 49.211 50.46c-18.82 20.591-24.904 52.144-15.188 78.767 5.332 14.608 16.612 33 30.659 49.987 9.998 12.09 39.401 41.931 40.958 41.568.665-.155 5.956-4.87 11.758-10.479l10.551-10.196-1.475-4.179c-2.352-6.668-1.908-17.453.973-23.641 3.058-6.569 9.847-13.416 16.172-16.312 7.395-3.386 19-3.299 26.529.198 11.55 5.364 18.074 15.086 18.674 27.827.472 10.03-2.159 17.16-8.88 24.06-7.094 7.283-12.314 9.36-23.652 9.414l-9.211.043-13.289 13.027c-7.31 7.165-16.44 15.807-20.29 19.205l-7 6.178 73.25.036L253 256V96.513l-28.756 28.744L195.487 154 166.5 125l-28.987-29 9.1-9.099 9.1-9.1 13.288 13.275 13.288 13.275-.716-8.202c-.953-10.931-3.82-20.875-8.828-30.622-3.164-6.156-6.236-10.126-13.185-17.035-13.061-12.986-24.006-18.735-40.882-21.474-6.018-.977-20.163-1.198-24.178-.377M3.09 184.75 3 256h102.013l-8.257-7.188c-13.406-11.671-45.695-44.537-54.077-55.043-21.5-26.948-34.252-51.352-38.198-73.103-1.126-6.202-1.313 2.422-1.391 64.084" fill="#1976D2" fill-rule="evenodd"/></svg>