<svg xmlns="http://www.w3.org/2000/svg" width="256" height="256"><path fill-opacity=".016" d="M0 128.004v128.004l128.25-.254 128.25-.254.254-127.75L257.008 0H0v128.004m.485.496c0 70.4.119 99.053.265 63.672.146-35.38.146-92.98 0-128C.604 29.153.485 58.1.485 128.5" fill="#1976D2" fill-rule="evenodd"/><path fill-opacity=".227" d="M84 1.896C62.572 6.637 46.034 16.042 29.891 32.664 15.482 47.502 7.752 63.409 4.46 85c-2.89 18.953-1.715 33.416 4.143 51 8.431 25.307 26.726 51.951 56.897 82.862 13.724 14.06 35.619 34.456 39.147 36.466 1.722.981 10.426-6.439 29.61-25.24l12.757-12.503 9.243-.063c7.709-.053 10.073-.471 14.243-2.519 6.367-3.127 12.427-9.177 15.552-15.529 3.427-6.964 3.533-20.773.21-27.514-3.107-6.306-9.746-12.766-16.262-15.827-7.391-3.472-19.152-3.579-26.136-.238-7.311 3.498-12.47 8.559-15.969 15.667-2.646 5.375-3.184 7.624-3.158 13.208.017 3.701.692 8.603 1.5 10.893l1.469 4.163-11.16 11.128-11.16 11.129-17.954-18.292C56.03 171.8 41.204 150.647 32.983 126.109c-6.678-19.934-4.046-44.569 6.741-63.092 5.074-8.711 18.061-21.708 26.776-26.796 19.218-11.218 43.849-13.364 65.835-5.734 10.446 3.625 17.295 8.161 27.198 18.013 13.706 13.635 20.344 28.169 22.036 48.245l.654 7.755-13.379-13.254-13.378-13.253-8.969 9.01-8.97 9.011 28.982 28.995 28.982 28.995 29-29 29-28.999-9.242-9.242-9.242-9.242-13.347 13.32-13.348 13.32-.612-9.831c-2.7-43.407-30.957-77.978-74.3-90.906C121.162-.227 96.974-.975 84 1.896" fill="#1976D2" fill-rule="evenodd"/><path fill-opacity=".464" d="M90.585 1.039C68.102 4.575 48.97 14.271 32.45 30.5 15.486 47.165 6.696 66.027 3.933 91.696c-4.086 37.944 12.198 73.57 54.782 119.851 10.189 11.073 33.056 32.864 43.86 41.794l3.074 2.542 6.426-5.549c3.534-3.052 13.175-11.932 21.425-19.734l15-14.185 4 .733c5.417.993 15.107-.775 20.084-3.666 5.317-3.088 11.107-9.561 13.74-15.36 2.897-6.379 2.88-18.719-.034-25.244-2.974-6.66-8.561-12.358-15.533-15.842-5.07-2.533-7.262-3.036-13.239-3.036-10.537 0-15.845 2.172-23.174 9.485-4.809 4.797-6.504 7.316-7.75 11.51-2.05 6.902-2.027 14.379.063 20.512l1.658 4.864-11.207 10.874-11.206 10.874-7.086-6.282c-3.897-3.455-11.938-11.469-17.869-17.81-30.038-32.112-45.279-56.152-50.513-79.677-2.04-9.171-1.508-27.395 1.076-36.85C38.755 54.993 61.753 32.969 88 27.404c11.645-2.47 32.082-1.531 42.256 1.94 19.69 6.717 35.636 20.794 44.356 39.156 4.378 9.217 6.409 17.122 7.067 27.5l.539 8.5-13.376-13.254-13.376-13.253-8.972 9.013-8.971 9.013 28.739 28.738L195 153.496l28.745-28.746 28.746-28.745-8.742-8.742-8.742-8.741-12.969 12.94c-7.133 7.117-13.129 12.737-13.324 12.489-.195-.248-.89-5.457-1.543-11.575-1.53-14.325-4.139-24.379-9.038-34.833-4.828-10.302-8.518-15.743-16.372-24.139C167.126 17.759 148.079 6.866 127.5 2.372c-8.545-1.866-28.862-2.6-36.915-1.333" fill="#1976D2" fill-rule="evenodd"/><path fill-opacity=".307" d="M91 1.53c-11.707 1.632-21.198 4.538-31 9.494C35.235 23.545 16.943 44.05 9.172 68c-13.363 41.19-3.075 79.364 33.683 124.988C55.966 209.261 102.19 255 105.524 255c1.28 0 13.326-10.818 27.7-24.877l13.725-13.423 9.775-.108c8.081-.09 10.508-.498 13.998-2.356 6.284-3.346 10.539-7.473 13.832-13.417 2.71-4.894 2.946-6.118 2.946-15.319 0-11.499-1.603-15.691-8.599-22.48-6.62-6.425-12.006-8.52-21.901-8.52-7.271 0-9.319.402-14.161 2.78-13.928 6.84-20.906 22.815-16.121 36.911l1.932 5.691-11.091 11.059c-6.1 6.082-11.586 11.059-12.191 11.059-1.633 0-34.798-34.19-42.691-44.011-24.695-30.727-36.111-57.282-34.132-79.399 3.177-35.522 23.891-61.634 56.146-70.777 11.178-3.169 30.498-3.152 41.752.037 13.344 3.78 22.766 9.375 33.052 19.626 10.214 10.178 15.353 18.231 19.025 29.809 2.525 7.959 5.236 26.292 4.062 27.466-.358.359-6.606-5.291-13.885-12.554l-13.233-13.206-8.47 8.515-8.47 8.514 28.493 28.492 28.492 28.492 28.489-28.502 28.488-28.501-8.739-8.74-8.74-8.74-13.428 13.4-13.428 13.401-.522-3.411c-.287-1.876-.767-6.786-1.065-10.911-3.374-46.6-41.268-84.508-89.898-89.931C105.178-.212 103.251-.177 91 1.53" fill="#1976D2" fill-rule="evenodd"/></svg>